<svg width="24" height="24" viewBox="0 0 24 24" fill="none" xmlns="http://www.w3.org/2000/svg">
<g id="5512231 1">
<path id="Vector" d="M18.4162 4.99125C19.544 4.99125 19.993 5.80594 19.993 6.8175C19.9924 11.2419 19.9927 15.6666 19.994 20.0916C19.994 21.6028 19.3668 22.0069 17.9371 22.0078C13.8809 22.0097 9.8243 22.0094 5.76742 22.0069C4.55055 22.0059 4.00586 21.3628 4.0068 20.2322C4.01055 14.8878 4.01024 9.54406 4.00586 4.20094C4.00492 2.80125 4.82899 1.99406 6.28305 1.99313C10.3293 1.99313 14.3759 1.99281 18.4227 1.99219C19.1709 1.99219 19.2337 3 18.3365 3C14.3459 3.00063 10.3549 3.00094 6.36367 3.00094C5.9793 3.00094 5.71148 3.03656 5.56023 3.10781C4.82898 3.45375 4.83367 4.49906 5.52367 4.87031C5.67617 4.95219 5.89648 4.99313 6.18461 4.99313C10.2621 4.99188 14.3393 4.99125 18.4162 4.99125ZM19.0077 6.63938C19.0077 6.37594 18.8793 6.00188 18.5577 6.00094C14.3171 6.00094 10.0768 6.00094 5.8368 6.00094C5.65742 6.00094 5.39461 5.91875 5.04836 5.75437C5.01211 5.7375 4.99398 5.74906 4.99398 5.78906C4.99211 10.6647 4.99211 15.54 4.99398 20.415C4.99492 20.8875 5.27711 21.0009 5.71117 21.0009C9.90617 21.0009 14.1009 21.0009 18.2952 21.0009C18.7049 21.0009 19.0077 20.8884 19.0077 20.4384C19.009 15.8391 19.009 11.2394 19.0077 6.63938Z" fill="#0E172C"/>
<path id="Vector_2" d="M14.5081 10.0078H9.49063C9.22398 10.0078 9.00781 10.224 9.00781 10.4906V10.5112C9.00781 10.7779 9.22398 10.9941 9.49063 10.9941H14.5081C14.7748 10.9941 14.9909 10.7779 14.9909 10.5112V10.4906C14.9909 10.224 14.7748 10.0078 14.5081 10.0078Z" fill="#0E172C"/>
<path id="Vector_3" d="M14.5126 13.0078H9.48383C9.2177 13.0078 9.00195 13.2236 9.00195 13.4897V13.5084C9.00195 13.7746 9.2177 13.9903 9.48383 13.9903H14.5126C14.7787 13.9903 14.9945 13.7746 14.9945 13.5084V13.4897C14.9945 13.2236 14.7787 13.0078 14.5126 13.0078Z" fill="#0E172C"/>
</g>
</svg>
