<svg width="24" height="24" viewBox="0 0 24 24" fill="none" xmlns="http://www.w3.org/2000/svg">
<g id="211866_more_icon 1">
<g id="Group">
<path id="Vector" d="M5.32969 14.25C4.04062 14.25 3 13.2469 3 12C3 10.7578 4.04062 9.75 5.32969 9.75C6.62344 9.75 7.66406 10.7578 7.66406 12C7.66406 13.2469 6.62344 14.25 5.32969 14.25Z" fill="#0E172C"/>
<path id="Vector_2" d="M12.0004 14.25C10.7113 14.25 9.66602 13.2469 9.66602 12C9.66602 10.7578 10.7113 9.75 12.0004 9.75C13.2895 9.75 14.3301 10.7578 14.3301 12C14.3301 13.2469 13.2895 14.25 12.0004 14.25Z" fill="#0E172C"/>
<path id="Vector_3" d="M18.6664 14.25C17.3773 14.25 16.332 13.2469 16.332 12C16.332 10.7578 17.3727 9.75 18.6664 9.75C19.9555 9.75 21.0008 10.7578 21.0008 12C21.0008 13.2469 19.9602 14.25 18.6664 14.25Z" fill="#0E172C"/>
</g>
</g>
</svg>
