<svg width="30" height="30" viewBox="0 0 30 30" fill="none" xmlns="http://www.w3.org/2000/svg">
<g id="4589369 14">
<path id="Vector" d="M11.0999 13.379C12.3187 14.3478 13.5109 15.3462 14.6765 16.3743C14.7639 16.4522 14.8764 16.4959 14.9935 16.4977C15.1105 16.4994 15.2243 16.4589 15.314 16.3837C17.0952 14.8837 18.8921 13.4103 20.7046 11.9634C21.0609 11.6821 21.3702 11.5228 21.6327 11.4853C22.1452 11.4165 22.4234 11.6806 22.4671 12.2774C22.4714 12.3479 22.4589 12.4194 22.4305 12.4867C22.4021 12.554 22.3586 12.6154 22.303 12.6665C20.0812 14.7759 17.7609 16.7009 15.3421 18.4415C15.2343 18.5187 15.1058 18.5596 14.9762 18.5579C14.8466 18.5562 14.7231 18.512 14.6249 18.4321L7.70617 12.8962C7.585 12.7994 7.50204 12.665 7.47179 12.5165C7.33742 11.8571 7.62179 11.5134 8.32492 11.4853C8.46447 11.4791 8.61322 11.527 8.74679 11.6212C9.54992 12.1837 10.3343 12.7696 11.0999 13.379Z" fill="#231F20"/>
</g>
</svg>
