<svg width="17" height="17" viewBox="0 0 17 17" fill="none" xmlns="http://www.w3.org/2000/svg">
<g id="8656304_loved post_posting_instagram_photo_social media_icon 1">
<path id="Vector" fill-rule="evenodd" clip-rule="evenodd" d="M2.47982 2.83659C2.47982 2.44448 2.79838 2.12697 3.19049 2.12826L13.8155 2.1633C14.2058 2.16459 14.5215 2.48134 14.5215 2.87163V11.0209C14.5215 11.4121 14.2044 11.7293 13.8132 11.7293H10.9798C10.8859 11.7293 10.7958 11.7666 10.7294 11.833L8.50065 14.0617L6.27192 11.833C6.20549 11.7666 6.11542 11.7293 6.02148 11.7293H3.18815C2.79695 11.7293 2.47982 11.4121 2.47982 11.0209V2.83659ZM3.19282 1.41993C2.40859 1.41734 1.77148 2.05237 1.77148 2.83659V11.0209C1.77148 11.8034 2.40575 12.4376 3.18815 12.4376H5.87478L8.25018 14.8131C8.38852 14.9513 8.61278 14.9513 8.75112 14.8131L11.1265 12.4376H13.8132C14.5956 12.4376 15.2298 11.8034 15.2298 11.0209V2.87163C15.2298 2.09105 14.5984 1.45754 13.8178 1.45497L3.19282 1.41993Z" fill="black"/>
<path id="Vector_2" fill-rule="evenodd" clip-rule="evenodd" d="M8.58527 4.0479C9.55717 3.30552 10.9524 3.3786 11.8409 4.26715C12.8091 5.23532 12.8091 6.80504 11.8409 7.77324L8.83574 10.7784C8.76929 10.8449 8.67919 10.8822 8.58527 10.8822C8.49134 10.8822 8.40124 10.8449 8.33487 10.7784L5.32965 7.77324C4.36147 6.80504 4.36147 5.23532 5.32965 4.26715C6.21819 3.3786 7.61337 3.30552 8.58527 4.0479ZM11.34 4.76801C10.6485 4.07646 9.52728 4.07646 8.83574 4.76801C8.6974 4.90633 8.47314 4.90633 8.33487 4.76801C7.64333 4.07646 6.52207 4.07646 5.83051 4.76801C5.13896 5.45956 5.13896 6.5808 5.83051 7.27237L8.58527 10.0272L11.34 7.27237C12.0316 6.5808 12.0316 5.45956 11.34 4.76801Z" fill="black"/>
</g>
</svg>
