<svg width="30" height="19" viewBox="0 0 30 19" fill="none" xmlns="http://www.w3.org/2000/svg">
<path id="Vector" d="M30 17.4019C30 17.7572 29.84 18.0979 29.5551 18.3491C29.2703 18.6003 28.884 18.7414 28.4812 18.7414H1.51885C1.11602 18.7414 0.729699 18.6003 0.44486 18.3491C0.160021 18.0979 0 17.7572 0 17.4019V1.83366C0 1.4784 0.160021 1.13769 0.44486 0.886477C0.729699 0.635268 1.11602 0.494141 1.51885 0.494141H28.4812C28.884 0.494141 29.2703 0.635268 29.5551 0.886477C29.84 1.13769 30 1.4784 30 1.83366V17.4019ZM4.00915 3.0583C7.35911 5.87096 10.7303 8.66367 14.1228 11.4364C14.4101 11.6719 14.6642 11.8027 14.885 11.8287C15.224 11.8695 15.5382 11.7693 15.8273 11.5281C19.7436 8.25994 23.6756 4.99384 27.6233 1.72978C27.7259 1.64422 27.7069 1.60144 27.5665 1.60144H2.36142C2.28751 1.60144 2.27688 1.62467 2.32955 1.67111C2.5947 1.90658 2.87232 2.14043 3.16242 2.37265C3.58278 2.70916 3.86502 2.93771 4.00915 3.0583ZM2.68708 3.50806C2.26487 3.1577 1.84313 2.80327 1.42184 2.44476C1.32761 2.36409 1.28049 2.38161 1.28049 2.49731L1.2888 16.6258C1.2888 16.7081 1.32021 16.7187 1.38304 16.6576C3.62343 14.4536 5.85412 12.2761 8.07511 10.125C8.2488 9.95634 8.39708 9.85041 8.51995 9.80723C8.75462 9.72493 8.9611 9.76975 9.13941 9.94167C9.25028 10.0476 9.31171 10.167 9.32372 10.2998C9.33758 10.453 9.28677 10.5862 9.17129 10.6994C6.84682 12.9776 4.51312 15.2602 2.17018 17.5474C2.12029 17.5962 2.1323 17.6207 2.20621 17.6207L27.7384 17.6195C27.8483 17.6195 27.8668 17.5836 27.7938 17.5119C25.4813 15.2533 23.1656 12.9874 20.8467 10.7141C20.6795 10.5503 20.6264 10.3755 20.6874 10.1898C20.7409 10.0268 20.8592 9.9046 21.0421 9.82312C21.3054 9.70579 21.5521 9.75834 21.7822 9.98078C24.0549 12.184 26.3456 14.4214 28.6544 16.693C28.6978 16.7354 28.7195 16.7281 28.7195 16.671V2.41787C28.7195 2.36817 28.6992 2.36042 28.6585 2.39465C24.8143 5.59027 21.0001 8.75533 17.2159 11.8898C16.5997 12.3999 16.1151 12.7169 15.7622 12.8407C14.9067 13.1389 14.0955 12.9698 13.3287 12.3335C9.78104 9.39209 6.23383 6.45028 2.68708 3.50806Z" fill="black"/>
</svg>
