<svg width="17" height="17" viewBox="0 0 17 17" fill="none" xmlns="http://www.w3.org/2000/svg">
<g id="5686032 1">
<path id="Vector" d="M7.70113 2.82924C7.22799 2.82957 7.0809 2.8734 7.08057 3.37941C7.08057 6.60167 7.08057 9.82381 7.08057 13.0458C7.08057 13.602 6.37533 13.5884 6.375 13.0528C6.375 9.76991 6.37555 6.48712 6.37666 3.20443C6.37666 2.74324 6.66619 2.31459 7.11078 2.1768C7.2188 2.14337 7.39566 2.12644 7.64137 2.126C8.21467 2.12467 8.78798 2.12467 9.36129 2.126C9.60478 2.12644 9.77976 2.14348 9.88623 2.17713C10.2209 2.28238 10.4912 2.56461 10.5852 2.90395C10.6115 2.99957 10.6247 3.15275 10.6247 3.36348C10.6251 6.57046 10.6252 9.77754 10.625 12.9847C10.625 13.1105 10.6125 13.2013 10.5875 13.2573C10.467 13.527 10.0738 13.5193 9.95064 13.252C9.92984 13.2067 9.91943 13.1417 9.91943 13.0571C9.91943 9.81938 9.91943 6.58163 9.91943 3.34389C9.91943 3.06166 9.85568 2.83189 9.5376 2.83123C8.92533 2.8299 8.31318 2.82924 7.70113 2.82924Z" fill="#0E172C"/>
<path id="Vector_2" d="M12.0426 13.0814C12.0429 13.4931 11.4831 13.6047 11.3513 13.2166C11.3375 13.1763 11.3307 13.1062 11.3307 13.0064C11.33 11.1691 11.3299 9.33202 11.3303 7.495C11.3307 6.9943 11.6086 6.56531 12.095 6.42088C12.1995 6.38989 12.3568 6.37451 12.5668 6.37473C13.1304 6.37517 13.6939 6.37462 14.2572 6.37307C14.5095 6.3724 14.693 6.38801 14.8077 6.41988C15.3174 6.56166 15.5953 7.00359 15.5857 7.54713C15.5541 9.37994 15.58 11.2194 15.5807 13.0529C15.581 13.5981 14.8751 13.5781 14.8751 13.0691C14.8747 11.237 14.8747 9.40496 14.8751 7.57303C14.8751 7.29545 14.8041 7.08029 14.4929 7.08029C13.8481 7.08007 13.2033 7.08029 12.5585 7.08096C12.2315 7.08096 12.0432 7.14736 12.0429 7.50031C12.0409 9.3608 12.0408 11.2212 12.0426 13.0814Z" fill="#0E172C"/>
<path id="Vector_3" d="M4.64797 7.7933C5.08559 7.79297 5.491 8.12932 5.6185 8.54668C5.65126 8.6536 5.66775 8.85182 5.66797 9.14135C5.6693 10.4141 5.66952 11.687 5.66863 12.96C5.66863 13.0975 5.65447 13.1968 5.62613 13.2579C5.53283 13.4597 5.27053 13.5169 5.09688 13.3824C4.97934 13.2914 4.95543 13.1772 4.95543 13.0218C4.95521 11.6525 4.95499 10.2833 4.95477 8.91424C4.95477 8.62903 4.8193 8.5002 4.54006 8.49987C3.89238 8.49898 3.24481 8.49876 2.59734 8.4992C2.28756 8.49953 2.12486 8.59483 2.12486 8.91491C2.12442 10.278 2.12431 11.6412 2.12453 13.0045C2.12453 13.1227 2.11025 13.2102 2.0817 13.2668C1.95055 13.5268 1.5727 13.5149 1.45018 13.2506C1.42915 13.2052 1.41874 13.1402 1.41897 13.0557C1.41963 11.6917 1.4193 10.3277 1.41797 8.96371C1.41731 8.24287 1.84131 7.79164 2.57111 7.79297C3.26329 7.79408 3.95557 7.79419 4.64797 7.7933Z" fill="#0E172C"/>
<path id="Vector_4" d="M15.9373 14.1699H1.05961C0.865965 14.1699 0.708984 14.3269 0.708984 14.5205V14.5245C0.708984 14.7182 0.865965 14.8752 1.05961 14.8752H15.9373C16.1309 14.8752 16.2879 14.7182 16.2879 14.5245V14.5205C16.2879 14.3269 16.1309 14.1699 15.9373 14.1699Z" fill="#0E172C"/>
</g>
</svg>
