<svg width="30" height="30" viewBox="0 0 30 30" fill="none" xmlns="http://www.w3.org/2000/svg">
<g id="4589369 13">
<path id="Vector" d="M11.0999 16.621C12.3187 15.6522 13.5109 14.6538 14.6765 13.6257C14.7639 13.5478 14.8764 13.5041 14.9935 13.5023C15.1105 13.5006 15.2243 13.5411 15.314 13.6163C17.0952 15.1163 18.8921 16.5897 20.7046 18.0366C21.0609 18.3179 21.3702 18.4772 21.6327 18.5147C22.1452 18.5835 22.4234 18.3194 22.4671 17.7226C22.4714 17.6521 22.4589 17.5806 22.4305 17.5133C22.4021 17.446 22.3586 17.3846 22.303 17.3335C20.0812 15.2241 17.7609 13.2991 15.3421 11.5585C15.2343 11.4813 15.1058 11.4404 14.9762 11.4421C14.8466 11.4438 14.7231 11.488 14.6249 11.5679L7.70617 17.1038C7.585 17.2006 7.50204 17.335 7.47179 17.4835C7.33742 18.1429 7.62179 18.4866 8.32492 18.5147C8.46447 18.5209 8.61322 18.473 8.74679 18.3788C9.54992 17.8163 10.3343 17.2304 11.0999 16.621Z" fill="#231F20"/>
</g>
</svg>
