<svg width="17" height="17" viewBox="0 0 17 17" fill="none" xmlns="http://www.w3.org/2000/svg">
<g id="7853767_kashifarif_user_profile_person_account_icon 1" clip-path="url(#clip0_2119_3667)">
<g id="Group">
<path id="Vector" d="M8.50026 16.5044C12.9208 16.5044 16.5044 12.9208 16.5044 8.50026C16.5044 4.07968 12.9208 0.496094 8.50026 0.496094C4.07968 0.496094 0.496094 4.07968 0.496094 8.50026C0.496094 12.9208 4.07968 16.5044 8.50026 16.5044Z" stroke="#0E172C" stroke-width="1.5" stroke-miterlimit="10" stroke-linecap="round" stroke-linejoin="round"/>
<path id="Vector_2" d="M8.50065 10.5547C6.02148 10.5547 3.89648 11.9714 2.83398 14.0964C4.25065 15.5839 6.30482 16.4339 8.50065 16.4339C10.6965 16.4339 12.7507 15.513 14.1673 14.0964C13.1048 12.0422 10.9798 10.5547 8.50065 10.5547Z" stroke="#0E172C" stroke-width="1.5" stroke-miterlimit="10" stroke-linecap="round" stroke-linejoin="round"/>
<path id="Vector_3" d="M8.50117 8.71328C9.9095 8.71328 11.0512 7.57161 11.0512 6.16328C11.0512 4.75496 9.9095 3.61328 8.50117 3.61328C7.09285 3.61328 5.95117 4.75496 5.95117 6.16328C5.95117 7.57161 7.09285 8.71328 8.50117 8.71328Z" stroke="#0E172C" stroke-width="1.5" stroke-miterlimit="10" stroke-linecap="round" stroke-linejoin="round"/>
</g>
</g>
<defs>
<clipPath id="clip0_2119_3667">
<rect width="17" height="17" fill="white"/>
</clipPath>
</defs>
</svg>
