<svg width="17" height="17" viewBox="0 0 17 17" fill="none" xmlns="http://www.w3.org/2000/svg">
<g id="1069259 1">
<path id="Vector" d="M8.41763 16.7138C4.69689 15.7927 2.11568 12.4923 1.69865 8.75897C1.66279 8.43844 1.64419 7.9964 1.64287 7.43283C1.63888 6.04273 1.64021 4.65085 1.64685 3.25721C1.64685 3.23551 1.65703 3.22002 1.6774 3.21072L8.52123 0.169981C8.53587 0.163503 8.5517 0.160156 8.56771 0.160156C8.58372 0.160156 8.59955 0.163503 8.61419 0.169981L15.452 3.2074C15.4764 3.21803 15.4886 3.23684 15.4886 3.26385C15.4899 4.73143 15.4892 6.20564 15.4866 7.6865C15.4786 11.807 12.819 15.7077 8.71712 16.7138C8.61707 16.7386 8.51724 16.7386 8.41763 16.7138ZM14.9806 3.54275L8.59361 0.706543C8.57546 0.698574 8.55753 0.698574 8.53982 0.706543L2.1708 3.53545C2.1522 3.54342 2.14291 3.55759 2.14291 3.57795C2.14025 4.87951 2.13981 6.18107 2.14158 7.48264C2.14202 8.03868 2.16261 8.4805 2.20334 8.80811C2.63298 12.2579 4.99904 15.2947 8.4256 16.2064C8.5199 16.2312 8.61419 16.231 8.70849 16.2058C12.2406 15.2502 14.6379 12.0786 14.9553 8.49865C14.9801 8.21753 14.9923 7.77505 14.9918 7.17119C14.991 5.96658 14.9907 4.76264 14.9912 3.55936C14.9912 3.5558 14.9901 3.55235 14.9882 3.54941C14.9864 3.54647 14.9837 3.54416 14.9806 3.54275Z" fill="#0E172C"/>
<path id="Vector_2" d="M7.21089 12.4655L3.91116 9.16507C3.90775 9.16167 3.90504 9.15764 3.90319 9.15319C3.90134 9.14875 3.90039 9.14398 3.90039 9.13917C3.90039 9.13436 3.90134 9.12959 3.90319 9.12514C3.90504 9.1207 3.90775 9.11666 3.91116 9.11327L5.49362 7.52948C5.49702 7.52607 5.50105 7.52336 5.5055 7.52151C5.50994 7.51966 5.51471 7.51871 5.51952 7.51871C5.52433 7.51871 5.5291 7.51966 5.53354 7.52151C5.53799 7.52336 5.54202 7.52607 5.54542 7.52948L7.21354 9.19495C7.21694 9.19836 7.22097 9.20107 7.22542 9.20292C7.22986 9.20477 7.23463 9.20572 7.23944 9.20572C7.24426 9.20572 7.24902 9.20477 7.25347 9.20292C7.25791 9.20107 7.26195 9.19836 7.26534 9.19495L11.5784 4.88186C11.5818 4.87845 11.5859 4.87574 11.5903 4.87389C11.5947 4.87205 11.5995 4.87109 11.6043 4.87109C11.6091 4.87109 11.6139 4.87205 11.6183 4.87389C11.6228 4.87574 11.6268 4.87845 11.6302 4.88186L13.216 6.46765C13.2194 6.47104 13.2221 6.47508 13.224 6.47952C13.2258 6.48396 13.2268 6.48873 13.2268 6.49354C13.2268 6.49836 13.2258 6.50312 13.224 6.50757C13.2221 6.51201 13.2194 6.51605 13.216 6.51944L7.26268 12.4655C7.25929 12.4689 7.25525 12.4716 7.25081 12.4734C7.24637 12.4753 7.2416 12.4762 7.23679 12.4762C7.23197 12.4762 7.22721 12.4753 7.22276 12.4734C7.21832 12.4716 7.21428 12.4689 7.21089 12.4655ZM12.5114 6.52143C12.5144 6.51852 12.5169 6.51503 12.5185 6.51118C12.5202 6.50733 12.5211 6.50319 12.5211 6.49899C12.5212 6.4948 12.5204 6.49063 12.5189 6.48673C12.5173 6.48284 12.515 6.47928 12.5121 6.47628L11.6296 5.57382C11.6266 5.5708 11.6232 5.56839 11.6193 5.56673C11.6155 5.56506 11.6113 5.56417 11.6071 5.56411C11.6029 5.56405 11.5988 5.56481 11.5949 5.56637C11.591 5.56792 11.5874 5.57022 11.5844 5.57315L7.26069 9.8962C7.25773 9.89917 7.25421 9.90153 7.25034 9.90314C7.24646 9.90475 7.24231 9.90557 7.23811 9.90557C7.23392 9.90557 7.22976 9.90475 7.22589 9.90314C7.22202 9.90153 7.2185 9.89917 7.21554 9.8962L5.55139 8.23206C5.54843 8.22909 5.54492 8.22673 5.54104 8.22512C5.53717 8.22351 5.53301 8.22268 5.52882 8.22268C5.52462 8.22268 5.52047 8.22351 5.51659 8.22512C5.51272 8.22673 5.5092 8.22909 5.50624 8.23206L4.61241 9.12257C4.60944 9.12553 4.60708 9.12905 4.60547 9.13292C4.60386 9.1368 4.60304 9.14095 4.60304 9.14515C4.60304 9.14934 4.60386 9.15349 4.60547 9.15737C4.60708 9.16124 4.60944 9.16476 4.61241 9.16772L7.21686 11.7715C7.21983 11.7745 7.22334 11.7768 7.22722 11.7785C7.23109 11.7801 7.23525 11.7809 7.23944 11.7809C7.24364 11.7809 7.24779 11.7801 7.25167 11.7785C7.25554 11.7768 7.25906 11.7745 7.26202 11.7715L12.5114 6.52143Z" fill="#0E172C"/>
</g>
</svg>
