<svg width="15" height="15" viewBox="0 0 15 15" fill="none" xmlns="http://www.w3.org/2000/svg">
<g id="103796_view_icon 1" clip-path="url(#clip0_2127_2951)">
<g id="view">
<path id="Vector" d="M7.5 10.3125C9.0533 10.3125 10.3125 9.0533 10.3125 7.5C10.3125 5.9467 9.0533 4.6875 7.5 4.6875C5.9467 4.6875 4.6875 5.9467 4.6875 7.5C4.6875 9.0533 5.9467 10.3125 7.5 10.3125Z" fill="#FF6A18"/>
<path id="Vector_2" d="M7.5 2.8125C2.8125 2.8125 0 7.47094 0 7.47094C0 7.47094 2.8125 12.1875 7.5 12.1875C12.1875 12.1875 15 7.5 15 7.5C15 7.5 12.1875 2.8125 7.5 2.8125ZM7.5 11.25C3.39844 11.25 1.17188 7.5 1.17188 7.5C1.17188 7.5 3.39844 3.75 7.5 3.75C11.6016 3.75 13.8281 7.5 13.8281 7.5C13.8281 7.5 11.6016 11.25 7.5 11.25Z" fill="#FF6A18"/>
</g>
</g>
<defs>
<clipPath id="clip0_2127_2951">
<rect width="15" height="15" fill="white"/>
</clipPath>
</defs>
</svg>
